<svg id="Layer_1" data-name="Layer 1" xmlns="http://www.w3.org/2000/svg" viewBox="0 0 1000 1000"><defs><style>.cls-1{fill:#414042;}</style></defs><path class="cls-1" d="M114.14,605C131.78,616.42,152,622.16,172,628c.78.23,1.86-.33,2.73-.68,10.51-4.21,19.71-3.58,28.65,4.73a19,19,0,0,0,21.45,3.29c8.58-4.16,15.34-1.32,22.42,3.3,6.71,4.39,13.21,8.59,22.39,5.35,16.5-5.82,32.55-26.29,37.29-46.43q96.51,1.23,193.05,1.15,98.43,0,196.84-1.17c3.85,14.28,10.23,27.14,21.75,37.58,12.86,11.64,23.64,12.55,38.41,3.18,6.72-4.26,12.89-6.17,21.27-3.5,9.7,3.08,19.93,2.2,27.93-5.83,5-5,10.3-4.86,17-3.09,9.7,2.57,20.54,4,28.63-3.37,6.64-6,13.62-7.66,21.93-8.13,12.49-.71,18.48-8.43,19.63-20.4,0-.14,0-.29,0-.43q26.36-.81,52.7-1.83-26.28-1-52.57-1.84c-.18-10.56-5.15-19.27-12.93-26.36-11.26-10.25-43.11-29.21-72.55-38.47-23.15-7.27-45-5.93-52.82-7.36-8.29-1.52-12.52-3.3-14.85-11.58-6.26-22.21-17.8-41.8-31.38-60.36S679,411.19,660.6,393q1.75.06,3.51.06a125.22,125.22,0,1,0-95.28-44c-9.25-.16-18.51-.09-27.77-.27-43.22-.88-82.27,12.05-118.21,35.46A203,203,0,0,0,387.21,413,125.2,125.2,0,1,0,239.28,515.86c-.62,4.51-6,5.91-9.94,6.53a72.73,72.73,0,0,1-18.47.53c-16.35-1.64-30.1,3-40.81,15.61-5.31,6.28-12.36,8.19-20.05,9.64-21.51,4.06-33.22,18.81-39.86,38.36a24.75,24.75,0,0,0-.87,3.28q-27.68.86-55.37,1.92,27.48,1.07,55,1.9C108.78,598.17,110.27,602.46,114.14,605Zm194.22-19.11c0-1.13-.06-2.25-.16-3.36-.67,1.12-1.31,2.25-1.92,3.38-2.08,3.84-3.86,7.74-5.58,11.61-4.11,9.22-7.85,18.29-14.2,25.93-8,9.57-16.73,17.62-30.39,13.51-9.13-2.74-18.79-20.95-16.57-32.41.52-2.66,1.1-5.29,1.77-7.88.86-3.36,1.85-6.66,3-9.87,5.87-16.57,15.59-30.94,31.23-41.5,14.12-9.53,24.63-9,37.54,2.17,12.11,10.45,20.68,23.49,27.1,38.06Q324.26,585.65,308.36,585.86ZM886,585.39a23.8,23.8,0,0,1,1,4.3,18,18,0,0,1,.16,4.06c-.45,6.08-4.11,11.13-10.83,14.23-6.3,2.91-13.7,1.77-14.88-5.74-.41-2.6-.92-5.17-1.51-7.72q-.66-2.82-1.44-5.63c-3.31-12-8.15-24-12.47-37.79C866,558,879.8,567.5,886,585.39Zm-96.86-55.31c3.55-5,9.44-4.31,14.44-2.61,26.77,9.11,41,29.51,48.66,55.41a49,49,0,0,1,1.31,5.88c.36,2.13.59,4.17.81,5.91.12,1,.24,2,.37,2.77-.21,20-14,28.93-30.39,22.23-6-2.45-7.49-7.31-7.13-12.61a100.89,100.89,0,0,0,.13-11.51c-.12-2.6-.35-5.15-.69-7.67-2.35-17.63-10-33.32-23.23-47.11C790.77,538.07,785.71,534.84,789.09,530.08Zm-48.07,2c3.3-5.11,7.5-8.47,13.9-8.45s12.11,2.65,17.2,6.12c21,14.38,33.09,34.08,38,57.94.54,2.59,1,5.24,1.34,7.94.1.66.18,1.32.26,2,.35,16.26-12.6,31.83-26.33,31.88-7.78,0-13.41-2.76-13.37-11.19a109.91,109.91,0,0,0-2-21.89,96.56,96.56,0,0,0-2.35-9.52q-7-23.18-25.24-41.82C738.78,541.44,737.94,536.92,741,532.13Zm-15.41,10.71c16,11.49,27.93,26.08,34.26,44a85.42,85.42,0,0,1,2.84,9.77c.33,1.46.63,2.95.89,4.45,3,16.92-4.62,31.3-16.74,35.88-11.37,4.3-21.2-1.07-31.63-18.2-4.18-6.85-7.65-14.13-11.36-21.27q-1.32-2.57-2.71-5.1c-1.1-2-1.69-4.36-2.93-6.43a9.1,9.1,0,0,0-4.63-4c.21,1.32.43,2.62.66,3.92q-15.51-.21-31-.36c1-2.06,1.93-4.15,3-6.16,6.39-12.43,14.06-23.86,25.31-32.26C701.86,539.36,713.42,534.09,725.61,542.84ZM408.54,402.19c13.6-14.58,29.36-23.88,50.37-21.55,14.12,1.57,22.91,12.77,35.08,18.83,2.56-6.13,4.86-11.79,7.28-17.4,5.22-12.05,14-20.37,26.7-23.83,17.87-4.87,35.43-4.63,51.6,1.94A125.65,125.65,0,0,0,610.45,381c26.12,23.54,41.4,53.88,45.2,90.94,2.1,20.5-2.53,40.05-8.36,60.26,26.73-8.4,44.77-8.25,55.1-.06-27.59,19-44.39,37.82-47.93,53.31q-26.15-.25-52.29-.4h0c-4.67-8.6-10.61-14.76-21.09-15.95-25.14-2.86-48.58,2.72-70.17,15.66h-20.5c48.44-31.73,61-30,103.4-33.25-2.62-5.4-14.45-1.7-11.55-12.56,4.49-16.78,3.39-34.16,1.46-51-2.85-24.91-8.69-49.13-31.27-64.8-1.4-4.25-5-5.61-8.77-5.28-14.81,1.25-16.09,13.14-16.9,23.86-2.49,33,.47,65.48,14.48,96,5,10.88-1.19,12.36-9,15.57-10.19,4.16-11.55-1.87-12.56-8.92-2.29-15.94-5-31.8-10.1-47.1-6.13-18.55-14.06-36.32-28-50.55-9.89-10.12-18.22-8.93-23.48,2.74,10.37-10.65,18.26-3.7,24.62,4.43,16.06,20.55,23.44,44.72,28.54,70.62-.22,0-.43,0-.64.05-5.7-12.22-15.35-19.65-23.35-17.16-9.29,2.9-12.82,18.13-7.86,34,3.47,11.14,10.2,19.64,17.12,22.72a21.23,21.23,0,0,1,.63,6.33C468.35,553.79,455.47,516.13,456,456.2c-1.06,1.48-2.45,77.09,23.89,105.72,8.31,9,10.79,15.75,4.83,22.83q-37.53,0-75,.23C360.29,533.42,359.68,454.59,408.54,402.19ZM570.13,518c-2.9-14.91-12.33-25.61-21.06-23.91-6.9,1.34-11.29,10-11.4,21-6.72-26.23-9.82-52.92-5.57-80.39,2-12.75,9.95-14,20.25-11.43,18.9,28.39,31.2,58.78,28.8,93.8-.61,9,.64,22.46-7.14,23.94-2.46.48-3.88-.82-4.78-3C571.13,532.56,571.58,525.47,570.13,518Zm-301.34.09a124.68,124.68,0,0,0,73.1-27.38c-3.61,18.32-6.94,35-10.1,51.59-1.12,5.92-4.12,7.41-8.57,3.48-12-10.54-25.81-13.35-41.14-11.21-11.06,1.54-14.64-6.09-18.47-15.55Q266.22,518.56,268.79,518.12Zm-35.21,10.15c11.78-7.48,21.14-5,30.29,4.48,4,4.2,5.07,6.87.48,11.45-12.76,12.75-22.69,26.67-28,42.7a84.42,84.42,0,0,0-2.56,9.62,88.08,88.08,0,0,0-1.61,22.11c.54,10.62-14.74,15-25.49,7.81C195.64,619,194,607.23,193,595.91l0-.16c.43-2.74.92-5.44,1.49-8.08C199.78,562.83,211.3,542.42,233.58,528.27Zm-38.47.55c4.09-1.75,8.2-2.72,12.47-2.08,7.45,1.12,10.81,5.15,5.11,11.53-13.24,14.82-22.28,31.07-25.38,49.54q-.66,3.84-.95,7.81a89.84,89.84,0,0,0,0,14c.51,6.45-3.94,9.63-9.44,10.6-8.06,1.4-16.33,2-22.17-5.65a24,24,0,0,1-5.08-16.81c0-1,0-2,.11-3a51.72,51.72,0,0,1,.84-6.11C155.22,565.26,175.63,537.17,195.11,528.82Zm-46,25.3c6.56-1.44,9.57,0,6.33,7.09a157,157,0,0,0-10.14,27.59c-.49,1.92-.92,3.86-1.27,5.82s-.65,3.69-.88,5.56c-.87,7-6.6,9.7-12.57,8.4-7.53-1.64-13.19-6.16-13.39-14.7,0-.35,0-.72,0-1.09a16.89,16.89,0,0,1,.36-3.22C120.18,576.08,136.93,556.8,149.12,554.12Z"/><path class="cls-1" d="M723,844.9q-111.51-1.67-223-1.54t-223,1.56c-74.35,1-148.69,2.54-223,5.44,74.35,2.9,148.69,4.41,223,5.44s148.69,1.53,223,1.56,148.7-.43,223-1.54,148.7-2.55,223.05-5.46C871.74,847.45,797.39,845.92,723,844.9Z"/></svg>